<svg width="20" height="20" viewBox="0 0 20 20" fill="none" xmlns="http://www.w3.org/2000/svg">
<path d="M13.89 2H6.10999C4.39999 2 3 3.39999 3 5.10999V16.47C3 17.92 4.04 18.54 5.31 17.83L9.23999 15.64C9.65999 15.41 10.34 15.41 10.75 15.64L14.68 17.83C15.95 18.54 16.99 17.92 16.99 16.47V5.10999C17 3.39999 15.6 2 13.89 2Z" stroke="white" stroke-width="1.5" stroke-linecap="round" stroke-linejoin="round"/>
<path d="M17 5.10999V16.47C17 17.92 15.96 18.53 14.69 17.83L10.76 15.64C10.34 15.41 9.65999 15.41 9.23999 15.64L5.31 17.83C4.04 18.53 3 17.92 3 16.47V5.10999C3 3.39999 4.39999 2 6.10999 2H13.89C15.6 2 17 3.39999 17 5.10999Z" stroke="white" stroke-width="1.5" stroke-linecap="round" stroke-linejoin="round"/>
</svg>
