<svg width="2683" height="1024" viewBox="0 0 2683 1024" fill="none" xmlns="http://www.w3.org/2000/svg">
<g clip-path="url(#clip0_221_23)">
<path d="M703.855 296.949C669.534 266.309 627.833 243.765 581.747 232.31C602.584 257.556 621.583 284.357 637.728 312.768L640.986 318.501L647.325 316.68C666.528 311.163 685.387 304.54 703.855 296.949ZM545.205 225.7C538.122 224.888 530.959 224.335 523.729 224.045V335.771L532.44 335.422C557.112 334.437 581.661 331.499 605.882 326.719L617.587 324.408L611.441 314.184C592.443 282.583 569.835 253.133 545.205 225.7ZM500.27 224.045C494.109 224.291 487.998 224.731 481.944 225.359C457.194 252.891 434.464 282.459 415.385 314.2L409.223 324.452L420.963 326.738C444.238 331.273 467.812 334.164 491.501 335.276L500.271 335.686L500.27 224.045ZM445.815 231.448C398.444 242.579 355.581 265.396 320.432 296.69C339.736 304.456 359.432 311.237 379.473 316.867L385.786 318.641L389.022 312.938C405.371 284.141 424.656 256.995 445.815 231.448ZM302.163 314.46C256.339 363.118 227.252 427.715 224.099 499.055H335.85L336.131 490.968C337.85 441.355 350.109 393.809 370.691 348.73L374.693 339.967L365.458 337.222C343.95 330.827 322.834 323.177 302.164 314.46L302.163 314.46ZM223.999 522.514C226.382 588.941 251.246 649.639 291.211 697.228L287.78 689.79C311.597 679.077 336.035 669.748 361.01 662.102L369.775 659.419L366.316 650.93C350.58 612.313 340.137 571.893 336.955 530.253L336.364 522.514L223.999 522.514ZM301.792 709.145C303.899 711.391 306.039 713.607 308.216 715.784C346.708 754.276 396.042 781.926 451.243 793.773C425.278 760.413 401.83 724.891 382.861 687.241L379.717 681.001L373.014 682.974C348.727 690.12 324.959 698.944 301.793 709.146L301.792 709.145ZM485.384 798.975C490.312 799.428 495.275 799.753 500.271 799.955V662.296L491.502 662.706C465.294 663.934 439.239 667.346 413.567 672.742L402.709 675.023L407.876 684.841C429.303 725.552 456.072 763.584 485.384 798.975ZM523.73 799.955C529.774 799.712 535.77 799.286 541.713 798.678C570.93 763.375 597.594 725.451 618.95 684.878L624.1 675.092L613.285 672.783C586.67 667.105 559.635 663.645 532.441 662.56L523.73 662.212V799.955ZM576.2 793.011C630.009 780.771 678.095 753.475 715.784 715.784C718.006 713.562 720.189 711.302 722.336 709.009C700.068 698.942 677.187 690.256 653.781 683.202L647.05 681.174L643.884 687.451C625.08 724.738 601.881 759.934 576.2 793.011ZM732.913 697.08C772.807 649.516 797.62 588.872 800.001 522.514H690.486L689.895 530.253C686.705 572.008 676.213 612.532 660.407 651.245L656.964 659.678L665.656 662.404C689.807 669.98 713.413 679.206 736.387 689.817L732.913 697.08ZM799.901 499.055C796.751 427.785 767.718 363.243 721.97 314.602C702.144 323.155 681.871 330.658 661.206 336.948L652.042 339.737L656.027 348.448C676.689 393.608 688.996 441.248 690.72 490.968L691 499.055L799.901 499.055ZM389.887 646.877C374.397 610.079 363.88 571.452 360.458 531.608L359.677 522.514H500.271V638.76L492.256 639.106C460.999 640.457 429.971 644.789 399.484 651.791L392.621 653.368L389.887 646.877ZM404.428 347.299C433.323 353.653 462.693 357.598 492.255 358.875L500.271 359.222V499.055H359.15L359.498 490.343C361.432 441.867 374.203 395.544 395.07 351.87L397.936 345.873L404.428 347.299ZM627.28 651.896C595.923 644.565 563.98 640.184 531.795 638.985L523.73 638.685V522.514H667.175L666.394 531.608C662.968 571.493 652.422 610.16 636.907 646.991L634.163 653.505L627.28 651.896ZM631.72 351.772C652.617 395.472 665.415 441.83 667.353 490.343L667.701 499.055H523.73V359.296L531.795 358.996C562.283 357.861 592.565 353.866 622.335 347.21L628.843 345.756L631.72 351.772Z" fill="#E1E1E1"/>
</g>
<g clip-path="url(#clip1_221_23)">
<path d="M639.01 647.383L682.478 690.851L673.471 699.662L630.003 656.194L639.01 647.383Z" fill="#01579B"/>
<path d="M667.792 703.969L686.002 685.76C687.96 683.802 690.505 682.823 693.051 682.823C695.596 682.823 698.142 683.802 700.1 685.76L769.021 754.094C770.979 756.052 771.958 758.598 771.958 761.143C771.958 763.689 770.979 766.234 769.021 768.192L750.812 786.402C748.854 788.36 746.309 789.339 743.763 789.339C741.218 789.339 738.672 788.36 736.714 786.402L667.792 718.067C665.834 716.109 664.855 713.564 664.855 711.018C664.855 708.473 665.834 705.927 667.792 703.969Z" fill="#003761"/>
<path d="M676.995 694.767L686.002 685.76C687.96 683.802 690.505 682.823 693.051 682.823C695.596 682.823 698.142 683.802 700.1 685.76L769.021 754.094C770.979 756.052 771.958 758.598 771.958 761.143C771.958 763.689 770.979 766.234 769.021 768.192L759.819 777.395L677.191 694.767H676.995Z" fill="#00406F"/>
<path d="M667.793 703.969L676.996 694.767L759.624 777.395L750.617 786.402C748.659 788.36 746.113 789.339 743.568 789.339C741.022 789.339 738.477 788.36 736.519 786.402L667.597 718.067C665.639 716.109 664.66 713.564 664.66 711.018C664.66 708.473 665.639 705.927 667.597 703.969H667.793Z" fill="#003761"/>
<path d="M564.437 702.497C631.087 702.497 685.117 648.466 685.117 581.817C685.117 515.167 631.087 461.136 564.437 461.136C497.787 461.136 443.757 515.167 443.757 581.817C443.757 648.466 497.787 702.497 564.437 702.497Z" fill="#B3E5FC" stroke="#373435" stroke-width="2.08347"/>
<path d="M467.825 485.205C494.514 458.517 529.475 445.173 564.437 445.173C599.399 445.173 634.36 458.517 661.049 485.205C687.737 511.893 701.081 546.855 701.081 581.817C701.081 616.778 687.737 651.74 661.049 678.428C634.36 705.117 599.399 718.461 564.437 718.461C529.475 718.461 494.514 705.117 467.825 678.428C441.137 651.74 427.793 616.778 427.793 581.817C427.793 546.855 441.137 511.893 467.825 485.205ZM564.437 462.253C533.746 462.253 503.321 473.996 479.835 497.215C456.616 520.434 444.873 551.125 444.873 581.817C444.873 612.508 456.616 642.933 479.835 666.419C503.054 689.637 533.746 701.38 564.437 701.38C595.129 701.38 625.553 689.637 649.039 666.419C672.258 643.2 684.001 612.508 684.001 581.817C684.001 551.125 672.258 520.7 649.039 497.215C625.82 473.996 595.129 462.253 564.437 462.253Z" fill="#01579B"/>
<path d="M492.489 627.822C495.23 629.976 495.622 633.892 493.468 636.633C491.314 639.374 487.398 639.766 484.657 637.612C483.482 636.633 482.503 635.85 481.524 634.871C480.349 633.892 479.37 632.913 478.587 632.13C464.489 618.032 457.44 599.627 457.44 581.221C457.44 562.816 464.489 544.411 478.587 530.313C478.979 529.922 479.762 529.138 480.937 528.159C483.482 525.81 487.398 526.006 489.748 528.551C492.097 531.096 491.901 535.012 489.356 537.362C488.964 537.558 488.377 538.341 487.594 539.124C476.042 550.676 470.167 565.949 470.167 581.026C470.167 596.298 476.042 611.375 487.594 622.927C488.377 623.71 489.356 624.493 490.139 625.277C491.118 626.06 491.901 626.843 492.685 627.43L492.489 627.822Z" fill="#E1F5FE"/>
</g>
<path d="M1329.6 569.578L1323.74 652H1107.14V638.133C1110.27 637.872 1114.76 637.417 1120.62 636.766C1126.61 636.115 1130.77 635.268 1133.12 634.227C1137.02 632.534 1139.82 630.06 1141.52 626.805C1143.34 623.549 1144.25 619.383 1144.25 614.305V415.867C1144.25 411.44 1143.47 407.534 1141.91 404.148C1140.47 400.763 1137.54 398.029 1133.12 395.945C1130.12 394.383 1125.89 392.885 1120.42 391.453C1115.08 389.891 1110.66 388.979 1107.14 388.719V374.852H1224.13V388.719C1220.49 388.849 1215.73 389.5 1209.88 390.672C1204.15 391.844 1199.98 392.885 1197.38 393.797C1192.95 395.359 1189.89 398.029 1188.2 401.805C1186.63 405.581 1185.85 409.617 1185.85 413.914V600.047C1185.85 608.641 1186.24 615.346 1187.02 620.164C1187.93 624.852 1189.95 628.497 1193.08 631.102C1196.07 633.445 1200.5 635.008 1206.36 635.789C1212.35 636.44 1220.68 636.766 1231.36 636.766C1236.18 636.766 1241.19 636.635 1246.4 636.375C1251.61 636.115 1256.55 635.594 1261.24 634.812C1265.8 634.031 1269.97 632.99 1273.74 631.688C1277.65 630.255 1280.51 628.497 1282.34 626.414C1287.67 620.424 1293.86 611.375 1300.89 599.266C1308.05 587.026 1313 577.13 1315.73 569.578H1329.6ZM1437.02 652H1343.86V639.109C1346.85 638.849 1349.91 638.589 1353.04 638.328C1356.29 638.068 1359.09 637.547 1361.44 636.766C1365.08 635.594 1367.75 633.576 1369.45 630.711C1371.27 627.716 1372.18 623.875 1372.18 619.188V500.242C1372.18 496.076 1371.2 492.299 1369.25 488.914C1367.43 485.398 1364.82 482.469 1361.44 480.125C1358.96 478.562 1355.38 477.26 1350.7 476.219C1346.01 475.047 1341.71 474.331 1337.8 474.07V461.375L1405.77 457.078L1408.51 459.812V616.844C1408.51 621.401 1409.35 625.177 1411.05 628.172C1412.87 631.167 1415.67 633.38 1419.45 634.812C1422.31 635.984 1425.11 636.961 1427.84 637.742C1430.58 638.393 1433.64 638.849 1437.02 639.109V652ZM1412.41 381.102C1412.41 388.523 1409.94 395.034 1404.99 400.633C1400.17 406.102 1394.18 408.836 1387.02 408.836C1380.38 408.836 1374.59 406.232 1369.64 401.023C1364.82 395.685 1362.41 389.63 1362.41 382.859C1362.41 375.698 1364.82 369.448 1369.64 364.109C1374.59 358.771 1380.38 356.102 1387.02 356.102C1394.45 356.102 1400.5 358.641 1405.19 363.719C1410.01 368.667 1412.41 374.461 1412.41 381.102ZM1650.89 471.336C1645.03 472.378 1639.43 474.526 1634.09 477.781C1628.89 480.906 1624.39 486.505 1620.62 494.578C1612.93 512.026 1604.99 530.255 1596.79 549.266C1588.59 568.146 1580.06 588.003 1571.2 608.836C1568.6 614.826 1565.8 621.922 1562.8 630.125C1559.94 638.328 1557.27 646.206 1554.8 653.758H1539.56C1527.19 623.159 1515.8 595.294 1505.38 570.164C1494.97 544.904 1484.16 519.057 1472.96 492.625C1470.36 486.635 1466.12 482.013 1460.27 478.758C1454.54 475.372 1448.74 473.224 1442.88 472.312V459.422H1531.95V473.094C1528.04 473.224 1523.16 474.07 1517.3 475.633C1511.44 477.065 1508.51 479.083 1508.51 481.688C1508.51 482.078 1508.83 483.12 1509.48 484.812C1510.14 486.375 1510.79 488.198 1511.44 490.281C1516.78 503.562 1524.33 522.117 1534.09 545.945C1543.86 569.773 1551.8 588.979 1557.92 603.562C1562.61 592.365 1568.47 578.432 1575.5 561.766C1582.66 545.099 1590.34 526.479 1598.55 505.906C1599.85 502.391 1601.09 499.135 1602.26 496.141C1603.43 493.016 1604.02 489.891 1604.02 486.766C1604.02 484.552 1602.91 482.599 1600.7 480.906C1598.61 479.083 1596.07 477.521 1593.08 476.219C1590.08 474.917 1587.15 473.94 1584.29 473.289C1581.42 472.638 1579.08 472.182 1577.26 471.922V459.422H1650.89V471.336ZM1830.58 606.688C1822.51 622.052 1811.7 634.292 1798.16 643.406C1784.61 652.521 1769.05 657.078 1751.48 657.078C1735.98 657.078 1722.38 654.344 1710.66 648.875C1699.07 643.406 1689.5 635.984 1681.95 626.609C1674.39 617.234 1668.73 606.297 1664.95 593.797C1661.31 581.297 1659.48 568.081 1659.48 554.148C1659.48 541.648 1661.44 529.409 1665.34 517.43C1669.38 505.32 1675.24 494.448 1682.92 484.812C1690.34 475.568 1699.52 468.146 1710.46 462.547C1721.53 456.818 1733.9 453.953 1747.57 453.953C1761.63 453.953 1773.68 456.167 1783.7 460.594C1793.73 465.021 1801.87 471.076 1808.12 478.758C1814.11 486.049 1818.53 494.643 1821.4 504.539C1824.39 514.435 1825.89 525.177 1825.89 536.766V549.656H1698.35C1698.35 562.286 1699.52 573.745 1701.87 584.031C1704.34 594.318 1708.18 603.367 1713.39 611.18C1718.47 618.732 1725.11 624.721 1733.31 629.148C1741.52 633.445 1751.28 635.594 1762.61 635.594C1774.2 635.594 1784.16 632.924 1792.49 627.586C1800.96 622.117 1809.09 612.352 1816.91 598.289L1830.58 606.688ZM1787.41 533.25C1787.41 525.958 1786.76 518.146 1785.46 509.812C1784.29 501.479 1782.34 494.513 1779.6 488.914C1776.61 482.924 1772.51 478.042 1767.3 474.266C1762.09 470.49 1755.38 468.602 1747.18 468.602C1733.51 468.602 1722.11 474.331 1713 485.789C1704.02 497.117 1699.13 512.938 1698.35 533.25H1787.41ZM2080.38 569.578L2074.52 652H1857.92V638.133C1861.05 637.872 1865.54 637.417 1871.4 636.766C1877.39 636.115 1881.55 635.268 1883.9 634.227C1887.8 632.534 1890.6 630.06 1892.3 626.805C1894.12 623.549 1895.03 619.383 1895.03 614.305V415.867C1895.03 411.44 1894.25 407.534 1892.69 404.148C1891.26 400.763 1888.33 398.029 1883.9 395.945C1880.9 394.383 1876.67 392.885 1871.2 391.453C1865.86 389.891 1861.44 388.979 1857.92 388.719V374.852H1974.91V388.719C1971.27 388.849 1966.52 389.5 1960.66 390.672C1954.93 391.844 1950.76 392.885 1948.16 393.797C1943.73 395.359 1940.67 398.029 1938.98 401.805C1937.41 405.581 1936.63 409.617 1936.63 413.914V600.047C1936.63 608.641 1937.02 615.346 1937.8 620.164C1938.72 624.852 1940.73 628.497 1943.86 631.102C1946.85 633.445 1951.28 635.008 1957.14 635.789C1963.13 636.44 1971.46 636.766 1982.14 636.766C1986.96 636.766 1991.97 636.635 1997.18 636.375C2002.39 636.115 2007.34 635.594 2012.02 634.812C2016.58 634.031 2020.75 632.99 2024.52 631.688C2028.43 630.255 2031.29 628.497 2033.12 626.414C2038.46 620.424 2044.64 611.375 2051.67 599.266C2058.83 587.026 2063.78 577.13 2066.52 569.578H2080.38ZM2265.34 606.688C2257.27 622.052 2246.46 634.292 2232.92 643.406C2219.38 652.521 2203.82 657.078 2186.24 657.078C2170.75 657.078 2157.14 654.344 2145.42 648.875C2133.83 643.406 2124.26 635.984 2116.71 626.609C2109.16 617.234 2103.49 606.297 2099.72 593.797C2096.07 581.297 2094.25 568.081 2094.25 554.148C2094.25 541.648 2096.2 529.409 2100.11 517.43C2104.15 505.32 2110.01 494.448 2117.69 484.812C2125.11 475.568 2134.29 468.146 2145.23 462.547C2156.29 456.818 2168.66 453.953 2182.34 453.953C2196.4 453.953 2208.44 456.167 2218.47 460.594C2228.49 465.021 2236.63 471.076 2242.88 478.758C2248.87 486.049 2253.3 494.643 2256.16 504.539C2259.16 514.435 2260.66 525.177 2260.66 536.766V549.656H2133.12C2133.12 562.286 2134.29 573.745 2136.63 584.031C2139.11 594.318 2142.95 603.367 2148.16 611.18C2153.23 618.732 2159.88 624.721 2168.08 629.148C2176.28 633.445 2186.05 635.594 2197.38 635.594C2208.96 635.594 2218.92 632.924 2227.26 627.586C2235.72 622.117 2243.86 612.352 2251.67 598.289L2265.34 606.688ZM2222.18 533.25C2222.18 525.958 2221.53 518.146 2220.23 509.812C2219.05 501.479 2217.1 494.513 2214.37 488.914C2211.37 482.924 2207.27 478.042 2202.06 474.266C2196.85 470.49 2190.15 468.602 2181.95 468.602C2168.27 468.602 2156.88 474.331 2147.77 485.789C2138.78 497.117 2133.9 512.938 2133.12 533.25H2222.18ZM2500.3 652H2405.97V639.109C2408.96 638.849 2412.22 638.589 2415.73 638.328C2419.38 638.068 2422.38 637.547 2424.72 636.766C2428.36 635.594 2431.03 633.576 2432.73 630.711C2434.55 627.716 2435.46 623.875 2435.46 619.188V520.164C2435.46 506.492 2432.21 495.945 2425.7 488.523C2419.32 481.102 2411.5 477.391 2402.26 477.391C2395.36 477.391 2389.04 478.497 2383.31 480.711C2377.58 482.794 2372.51 485.398 2368.08 488.523C2363.78 491.518 2360.33 494.773 2357.73 498.289C2355.25 501.674 2353.43 504.409 2352.26 506.492V617.234C2352.26 621.661 2353.17 625.307 2354.99 628.172C2356.82 631.036 2359.55 633.25 2363.2 634.812C2365.93 636.115 2368.86 637.091 2371.98 637.742C2375.24 638.393 2378.56 638.849 2381.95 639.109V652H2287.61V639.109C2290.6 638.849 2293.66 638.589 2296.79 638.328C2300.04 638.068 2302.84 637.547 2305.19 636.766C2308.83 635.594 2311.5 633.576 2313.2 630.711C2315.02 627.716 2315.93 623.875 2315.93 619.188V500.242C2315.93 495.815 2314.95 491.779 2313 488.133C2311.18 484.357 2308.57 481.297 2305.19 478.953C2302.71 477.391 2299.78 476.284 2296.4 475.633C2293.01 474.852 2289.37 474.331 2285.46 474.07V461.375L2349.52 457.078L2352.26 459.812V486.961H2353.23C2356.36 483.836 2360.27 480.125 2364.95 475.828C2369.64 471.401 2374.07 467.82 2378.23 465.086C2383.05 461.961 2388.78 459.357 2395.42 457.273C2402.06 455.19 2409.55 454.148 2417.88 454.148C2436.37 454.148 2450.04 459.943 2458.9 471.531C2467.88 482.99 2472.38 498.289 2472.38 517.43V617.625C2472.38 622.182 2473.16 625.893 2474.72 628.758C2476.28 631.492 2478.95 633.641 2482.73 635.203C2485.85 636.505 2488.52 637.417 2490.73 637.938C2493.08 638.458 2496.27 638.849 2500.3 639.109V652ZM2651.09 557.664C2656.42 562.352 2660.53 567.755 2663.39 573.875C2666.26 579.995 2667.69 587.482 2667.69 596.336C2667.69 614.174 2660.98 628.758 2647.57 640.086C2634.29 651.414 2617.04 657.078 2595.81 657.078C2584.61 657.078 2574.26 655.06 2564.76 651.023C2555.38 646.987 2548.68 643.276 2544.64 639.891L2540.73 652.586H2526.09L2524.13 585.594H2537.61C2538.65 590.672 2540.86 596.596 2544.25 603.367C2547.64 610.138 2551.74 616.258 2556.55 621.727C2561.63 627.456 2567.69 632.273 2574.72 636.18C2581.88 640.086 2589.89 642.039 2598.74 642.039C2611.24 642.039 2620.88 639.24 2627.65 633.641C2634.42 627.911 2637.8 619.773 2637.8 609.227C2637.8 603.758 2636.7 599.07 2634.48 595.164C2632.4 591.128 2629.28 587.612 2625.11 584.617C2620.81 581.622 2615.54 578.953 2609.29 576.609C2603.04 574.135 2596.07 571.727 2588.39 569.383C2582.27 567.56 2575.43 565.086 2567.88 561.961C2560.46 558.706 2554.08 554.93 2548.74 550.633C2543.01 546.076 2538.33 540.477 2534.68 533.836C2531.03 527.195 2529.21 519.383 2529.21 510.398C2529.21 494.643 2535.07 481.297 2546.79 470.359C2558.51 459.422 2574.2 453.953 2593.86 453.953C2601.41 453.953 2609.09 454.93 2616.91 456.883C2624.85 458.836 2631.29 461.18 2636.24 463.914L2640.73 453.758H2654.8L2657.73 515.672H2644.25C2641.52 501.87 2635.59 490.672 2626.48 482.078C2617.49 473.354 2606.49 468.992 2593.47 468.992C2582.79 468.992 2574.39 471.661 2568.27 477C2562.15 482.339 2559.09 488.784 2559.09 496.336C2559.09 502.195 2560.07 507.078 2562.02 510.984C2564.11 514.891 2567.17 518.211 2571.2 520.945C2575.11 523.549 2579.99 526.023 2585.85 528.367C2591.84 530.581 2599.2 533.12 2607.92 535.984C2616.52 538.719 2624.59 541.909 2632.14 545.555C2639.82 549.201 2646.14 553.237 2651.09 557.664Z" fill="white"/>
<defs>
<clipPath id="clip0_221_23">
<rect width="1024" height="1024" fill="white"/>
</clipPath>
<clipPath id="clip1_221_23">
<rect width="401" height="401" fill="white" transform="translate(378 395)"/>
</clipPath>
</defs>
</svg>
