<svg width="1024" height="1024" viewBox="0 0 1024 1024" fill="none" xmlns="http://www.w3.org/2000/svg">
<g clip-path="url(#clip0_221_2)">
<path d="M703.855 296.949C669.534 266.309 627.833 243.765 581.747 232.31C602.584 257.556 621.583 284.357 637.728 312.768L640.986 318.501L647.325 316.68C666.528 311.163 685.387 304.54 703.855 296.949ZM545.205 225.7C538.122 224.888 530.959 224.335 523.729 224.045V335.771L532.44 335.422C557.112 334.437 581.661 331.499 605.882 326.719L617.587 324.408L611.441 314.184C592.443 282.583 569.835 253.133 545.205 225.7ZM500.27 224.045C494.109 224.291 487.999 224.731 481.944 225.359C457.194 252.891 434.464 282.459 415.385 314.2L409.223 324.452L420.963 326.738C444.238 331.273 467.812 334.164 491.501 335.276L500.271 335.686L500.27 224.045ZM445.815 231.448C398.444 242.579 355.581 265.396 320.432 296.69C339.736 304.456 359.432 311.237 379.473 316.867L385.786 318.641L389.022 312.938C405.371 284.141 424.656 256.995 445.815 231.448ZM302.163 314.46C256.339 363.118 227.252 427.715 224.099 499.055H335.85L336.131 490.968C337.85 441.355 350.109 393.809 370.691 348.73L374.693 339.967L365.458 337.222C343.95 330.827 322.834 323.177 302.164 314.46L302.163 314.46ZM223.999 522.514C226.382 588.941 251.246 649.639 291.211 697.228L287.78 689.79C311.597 679.077 336.035 669.748 361.01 662.102L369.775 659.419L366.316 650.93C350.58 612.313 340.137 571.893 336.955 530.253L336.364 522.514L223.999 522.514ZM301.792 709.145C303.899 711.391 306.039 713.607 308.216 715.784C346.708 754.276 396.042 781.926 451.243 793.773C425.278 760.413 401.83 724.891 382.861 687.241L379.717 681.001L373.014 682.974C348.727 690.12 324.959 698.944 301.793 709.146L301.792 709.145ZM485.384 798.975C490.312 799.428 495.275 799.753 500.271 799.955V662.296L491.502 662.706C465.294 663.934 439.239 667.346 413.567 672.742L402.709 675.023L407.876 684.841C429.303 725.552 456.072 763.584 485.384 798.975ZM523.73 799.955C529.774 799.712 535.77 799.286 541.713 798.678C570.93 763.375 597.594 725.451 618.95 684.878L624.1 675.092L613.285 672.783C586.67 667.105 559.635 663.645 532.441 662.56L523.73 662.212V799.955ZM576.2 793.011C630.009 780.771 678.095 753.475 715.784 715.784C718.006 713.562 720.189 711.302 722.336 709.009C700.068 698.942 677.187 690.256 653.781 683.202L647.05 681.174L643.884 687.451C625.079 724.738 601.881 759.934 576.2 793.011ZM732.913 697.08C772.807 649.516 797.62 588.872 800.001 522.514H690.486L689.895 530.253C686.705 572.008 676.213 612.532 660.407 651.245L656.964 659.678L665.656 662.404C689.807 669.98 713.413 679.206 736.387 689.817L732.913 697.08ZM799.901 499.055C796.751 427.785 767.718 363.243 721.97 314.602C702.144 323.155 681.871 330.658 661.206 336.948L652.042 339.737L656.027 348.448C676.689 393.608 688.996 441.248 690.72 490.968L691 499.055L799.901 499.055ZM389.887 646.877C374.397 610.079 363.88 571.452 360.458 531.608L359.677 522.514H500.271V638.76L492.256 639.106C460.999 640.457 429.971 644.789 399.484 651.791L392.621 653.368L389.887 646.877ZM404.428 347.299C433.323 353.653 462.693 357.598 492.255 358.875L500.271 359.222V499.055H359.15L359.498 490.343C361.432 441.867 374.203 395.544 395.07 351.87L397.936 345.873L404.428 347.299ZM627.28 651.896C595.923 644.565 563.98 640.184 531.795 638.985L523.73 638.685V522.514H667.175L666.394 531.608C662.968 571.493 652.422 610.16 636.907 646.991L634.163 653.505L627.28 651.896ZM631.72 351.772C652.617 395.472 665.415 441.83 667.353 490.343L667.701 499.055H523.73V359.296L531.795 358.996C562.283 357.861 592.565 353.866 622.335 347.21L628.843 345.756L631.72 351.772Z" fill="#E1E1E1"/>
</g>
<defs>
<clipPath id="clip0_221_2">
<rect width="1024" height="1024" fill="white"/>
</clipPath>
</defs>
</svg>
