<svg width="401" height="401" viewBox="0 0 401 401" fill="none" xmlns="http://www.w3.org/2000/svg">
<g clip-path="url(#clip0_221_10)">
<path d="M261.01 252.383L304.478 295.851L295.471 304.662L252.003 261.194L261.01 252.383Z" fill="#01579B"/>
<path d="M289.792 308.969L308.002 290.76C309.96 288.802 312.505 287.823 315.051 287.823C317.596 287.823 320.142 288.802 322.1 290.76L391.021 359.094C392.979 361.052 393.958 363.598 393.958 366.143C393.958 368.689 392.979 371.234 391.021 373.192L372.812 391.402C370.854 393.36 368.309 394.339 365.763 394.339C363.218 394.339 360.672 393.36 358.714 391.402L289.792 323.067C287.834 321.109 286.855 318.564 286.855 316.018C286.855 313.473 287.834 310.927 289.792 308.969Z" fill="#003761"/>
<path d="M298.995 299.767L308.002 290.76C309.96 288.802 312.505 287.823 315.051 287.823C317.596 287.823 320.142 288.802 322.1 290.76L391.021 359.094C392.979 361.052 393.958 363.598 393.958 366.143C393.958 368.689 392.979 371.234 391.021 373.192L381.819 382.395L299.191 299.767H298.995Z" fill="#00406F"/>
<path d="M289.793 308.969L298.996 299.767L381.624 382.395L372.617 391.402C370.659 393.36 368.113 394.339 365.568 394.339C363.022 394.339 360.477 393.36 358.519 391.402L289.597 323.067C287.639 321.109 286.66 318.564 286.66 316.018C286.66 313.473 287.639 310.927 289.597 308.969H289.793Z" fill="#003761"/>
<path d="M186.437 307.497C253.087 307.497 307.117 253.466 307.117 186.817C307.117 120.167 253.087 66.1365 186.437 66.1365C119.787 66.1365 65.7568 120.167 65.7568 186.817C65.7568 253.466 119.787 307.497 186.437 307.497Z" fill="#B3E5FC" stroke="#373435" stroke-width="2.08347"/>
<path d="M89.8254 90.2051C116.514 63.5168 151.475 50.1726 186.437 50.1726C221.399 50.1726 256.36 63.5168 283.049 90.2051C309.737 116.893 323.081 151.855 323.081 186.817C323.081 221.778 309.737 256.74 283.049 283.428C256.36 310.117 221.399 323.461 186.437 323.461C151.475 323.461 116.514 310.117 89.8254 283.428C63.1371 256.74 49.793 221.778 49.793 186.817C49.793 151.855 63.1371 116.893 89.8254 90.2051ZM186.437 67.2531C155.745 67.2531 125.321 78.996 101.835 102.215C78.6163 125.434 66.8735 156.125 66.8735 186.817C66.8735 217.508 78.6163 247.933 101.835 271.419C125.054 294.637 155.745 306.38 186.437 306.38C217.129 306.38 247.553 294.637 271.039 271.419C294.258 248.2 306.001 217.508 306.001 186.817C306.001 156.125 294.258 125.7 271.039 102.215C247.82 78.996 217.129 67.2531 186.437 67.2531Z" fill="#01579B"/>
<path d="M114.489 232.822C117.23 234.976 117.622 238.892 115.468 241.633C113.314 244.374 109.398 244.766 106.657 242.612C105.482 241.633 104.503 240.85 103.524 239.871C102.349 238.892 101.37 237.913 100.587 237.13C86.4893 223.032 79.4404 204.627 79.4404 186.221C79.4404 167.816 86.4893 149.411 100.587 135.313C100.979 134.922 101.762 134.138 102.937 133.159C105.482 130.81 109.398 131.006 111.748 133.551C114.097 136.096 113.901 140.012 111.356 142.362C110.964 142.558 110.377 143.341 109.594 144.124C98.0415 155.676 92.1675 170.949 92.1675 186.026C92.1675 201.298 98.0415 216.375 109.594 227.927C110.377 228.71 111.356 229.493 112.139 230.277C113.118 231.06 113.901 231.843 114.685 232.43L114.489 232.822Z" fill="#E1F5FE"/>
</g>
<defs>
<clipPath id="clip0_221_10">
<rect width="401" height="401" fill="white"/>
</clipPath>
</defs>
</svg>
